<svg width="200" height="62" viewBox="0 0 200 62" fill="none" xmlns="http://www.w3.org/2000/svg">
<g clip-path="url(#clip0_1362_471)">
<path d="M200 15.6241V4.21606H148.148V15.6241H167.901V61.0081H180V15.6241H200Z" fill="black"/>
<path d="M140.494 4.21606H128.395V61.2561H140.494V4.21606Z" fill="black"/>
<path d="M69.1357 61.2559H81.4814V29.2639C81.4814 20.0879 87.6543 14.8799 95.3086 14.8799C103.457 14.8799 108.889 19.0959 108.889 29.5119V61.2559H120.988V26.7839C120.988 12.6479 112.346 1.98389 97.037 1.98389C88.395 1.98389 84.1975 3.71989 81.2345 6.69589V4.21589H69.1357V61.2559Z" fill="black"/>
<path d="M12.8395 30.9999C12.8395 20.5839 20.4938 12.3999 31.358 12.3999C41.9753 12.3999 49.8765 20.5839 49.8765 30.9999C49.8765 41.1679 42.2222 49.5999 31.358 49.5999C20.4938 49.3519 12.8395 41.1679 12.8395 30.9999ZM0 30.9999C0 46.1279 11.6049 61.0079 31.358 61.0079C51.1111 61.0079 62.716 46.1279 62.716 30.9999C62.716 15.8719 51.1111 0.991943 31.358 0.991943C11.6049 0.991943 0 15.8719 0 30.9999Z" fill="black"/>
<path d="M23.7036 18.6001V43.1521L44.6913 30.7521L23.7036 18.6001Z" fill="black"/>
</g>
<defs>
<clipPath id="clip0_1362_471">
<rect width="200" height="62" fill="white"/>
</clipPath>
</defs>
</svg>
